{
	"asset":{
		"generator":"Khronos glTF Blender I/O v4.4.56",
		"version":"2.0"
	},
	"extensionsUsed":[
		"KHR_materials_clearcoat"
	],
	"scene":0,
	"scenes":[
		{
			"name":"Scene",
			"nodes":[
				0
			]
		}
	],
	"nodes":[
		{
			"mesh":0,
			"name":"SM_oil_refinery_01_MI_oil_refinery_01_0",
			"rotation":[
				0.70710688829422,
				0,
				0,
				0.7071066498756409
			],
			"translation":[
				0.01399993896484375,
				0.7413946986198425,
				0.020794881507754326
			]
		}
	],
	"materials":[
		{
			"doubleSided":true,
			"emissiveFactor":[
				1,
				1,
				1
			],
			"extensions":{
				"KHR_materials_clearcoat":{
					"clearcoatRoughnessFactor":0.03999999910593033
				}
			},
			"name":"MI_oil_refinery_01"
		}
	],
	"meshes":[
		{
			"name":"Mesh.012",
			"primitives":[
				{
					"attributes":{
						"POSITION":0,
						"NORMAL":1,
						"TEXCOORD_0":2,
						"TEXCOORD_1":3,
						"TEXCOORD_2":4
					},
					"indices":5,
					"material":0
				}
			]
		}
	],
	"accessors":[
		{
			"bufferView":0,
			"componentType":5126,
			"count":16258,
			"max":[
				0.613467276096344,
				0.36599481105804443,
				1.4968843460083008
			],
			"min":[
				-0.6414671540260315,
				-0.40758413076400757,
				-0.01409472618252039
			],
			"type":"VEC3"
		},
		{
			"bufferView":1,
			"componentType":5126,
			"count":16258,
			"type":"VEC3"
		},
		{
			"bufferView":2,
			"componentType":5126,
			"count":16258,
			"type":"VEC2"
		},
		{
			"bufferView":3,
			"componentType":5126,
			"count":16258,
			"type":"VEC2"
		},
		{
			"bufferView":4,
			"componentType":5126,
			"count":16258,
			"type":"VEC2"
		},
		{
			"bufferView":5,
			"componentType":5123,
			"count":41346,
			"type":"SCALAR"
		}
	],
	"bufferViews":[
		{
			"buffer":0,
			"byteLength":195096,
			"byteOffset":0,
			"target":34962
		},
		{
			"buffer":0,
			"byteLength":195096,
			"byteOffset":195096,
			"target":34962
		},
		{
			"buffer":0,
			"byteLength":130064,
			"byteOffset":390192,
			"target":34962
		},
		{
			"buffer":0,
			"byteLength":130064,
			"byteOffset":520256,
			"target":34962
		},
		{
			"buffer":0,
			"byteLength":130064,
			"byteOffset":650320,
			"target":34962
		},
		{
			"buffer":0,
			"byteLength":82692,
			"byteOffset":780384,
			"target":34963
		}
	],
	"buffers":[
		{
			"byteLength":863076,
			"uri":"1.bin"
		}
	]
}
