{
	"asset":{
		"generator":"Khronos glTF Blender I/O v4.4.56",
		"version":"2.0"
	},
	"extensionsUsed":[
		"KHR_materials_clearcoat"
	],
	"scene":0,
	"scenes":[
		{
			"name":"Scene",
			"nodes":[
				0
			]
		}
	],
	"nodes":[
		{
			"mesh":0,
			"name":"SM_oil_refinery_10_MI_oil_refinery_10_0",
			"rotation":[
				0.70710688829422,
				0,
				0,
				0.7071066498756409
			],
			"scale":[
				0.6242637634277344,
				0.6242637038230896,
				0.6242637038230896
			],
			"translation":[
				4.0531158447265625e-06,
				0.25639739632606506,
				-3.2484529128851136e-06
			]
		}
	],
	"materials":[
		{
			"doubleSided":true,
			"emissiveFactor":[
				1,
				1,
				1
			],
			"extensions":{
				"KHR_materials_clearcoat":{
					"clearcoatRoughnessFactor":0.03999999910593033
				}
			},
			"name":"MI_oil_refinery_10"
		}
	],
	"meshes":[
		{
			"name":"Mesh.003",
			"primitives":[
				{
					"attributes":{
						"POSITION":0,
						"NORMAL":1,
						"TEXCOORD_0":2,
						"TEXCOORD_1":3,
						"TEXCOORD_2":4
					},
					"indices":5,
					"material":0
				}
			]
		}
	],
	"accessors":[
		{
			"bufferView":0,
			"componentType":5126,
			"count":34586,
			"max":[
				3.2037699222564697,
				0.725979208946228,
				0.5530170798301697
			],
			"min":[
				-3.203778028488159,
				-0.7259725332260132,
				-0.04022221639752388
			],
			"type":"VEC3"
		},
		{
			"bufferView":1,
			"componentType":5126,
			"count":34586,
			"type":"VEC3"
		},
		{
			"bufferView":2,
			"componentType":5126,
			"count":34586,
			"type":"VEC2"
		},
		{
			"bufferView":3,
			"componentType":5126,
			"count":34586,
			"type":"VEC2"
		},
		{
			"bufferView":4,
			"componentType":5126,
			"count":34586,
			"type":"VEC2"
		},
		{
			"bufferView":5,
			"componentType":5123,
			"count":66546,
			"type":"SCALAR"
		}
	],
	"bufferViews":[
		{
			"buffer":0,
			"byteLength":415032,
			"byteOffset":0,
			"target":34962
		},
		{
			"buffer":0,
			"byteLength":415032,
			"byteOffset":415032,
			"target":34962
		},
		{
			"buffer":0,
			"byteLength":276688,
			"byteOffset":830064,
			"target":34962
		},
		{
			"buffer":0,
			"byteLength":276688,
			"byteOffset":1106752,
			"target":34962
		},
		{
			"buffer":0,
			"byteLength":276688,
			"byteOffset":1383440,
			"target":34962
		},
		{
			"buffer":0,
			"byteLength":133092,
			"byteOffset":1660128,
			"target":34963
		}
	],
	"buffers":[
		{
			"byteLength":1793220,
			"uri":"10.bin"
		}
	]
}
