{
	"asset":{
		"generator":"Khronos glTF Blender I/O v4.4.56",
		"version":"2.0"
	},
	"extensionsUsed":[
		"KHR_materials_clearcoat"
	],
	"scene":0,
	"scenes":[
		{
			"name":"Scene",
			"nodes":[
				0
			]
		}
	],
	"nodes":[
		{
			"mesh":0,
			"name":"SM_oil_refinery_11_MI_oil_refinery_11_0",
			"rotation":[
				0.70710688829422,
				0,
				0,
				0.7071066498756409
			],
			"translation":[
				0,
				0.37736305594444275,
				0
			]
		}
	],
	"materials":[
		{
			"doubleSided":true,
			"emissiveFactor":[
				1,
				1,
				1
			],
			"extensions":{
				"KHR_materials_clearcoat":{
					"clearcoatRoughnessFactor":0.03999999910593033
				}
			},
			"name":"MI_oil_refinery_11"
		}
	],
	"meshes":[
		{
			"name":"Mesh.002",
			"primitives":[
				{
					"attributes":{
						"POSITION":0,
						"NORMAL":1,
						"TEXCOORD_0":2,
						"TEXCOORD_1":3,
						"TEXCOORD_2":4
					},
					"indices":5,
					"material":0
				}
			]
		}
	],
	"accessors":[
		{
			"bufferView":0,
			"componentType":5126,
			"count":29245,
			"max":[
				0.52864670753479,
				0.7108580470085144,
				0.7619278430938721
			],
			"min":[
				-0.5286482572555542,
				-0.7108585238456726,
				-0.007201635278761387
			],
			"type":"VEC3"
		},
		{
			"bufferView":1,
			"componentType":5126,
			"count":29245,
			"type":"VEC3"
		},
		{
			"bufferView":2,
			"componentType":5126,
			"count":29245,
			"type":"VEC2"
		},
		{
			"bufferView":3,
			"componentType":5126,
			"count":29245,
			"type":"VEC2"
		},
		{
			"bufferView":4,
			"componentType":5126,
			"count":29245,
			"type":"VEC2"
		},
		{
			"bufferView":5,
			"componentType":5123,
			"count":60018,
			"type":"SCALAR"
		}
	],
	"bufferViews":[
		{
			"buffer":0,
			"byteLength":350940,
			"byteOffset":0,
			"target":34962
		},
		{
			"buffer":0,
			"byteLength":350940,
			"byteOffset":350940,
			"target":34962
		},
		{
			"buffer":0,
			"byteLength":233960,
			"byteOffset":701880,
			"target":34962
		},
		{
			"buffer":0,
			"byteLength":233960,
			"byteOffset":935840,
			"target":34962
		},
		{
			"buffer":0,
			"byteLength":233960,
			"byteOffset":1169800,
			"target":34962
		},
		{
			"buffer":0,
			"byteLength":120036,
			"byteOffset":1403760,
			"target":34963
		}
	],
	"buffers":[
		{
			"byteLength":1523796,
			"uri":"11.bin"
		}
	]
}
