{
	"asset":{
		"generator":"Khronos glTF Blender I/O v4.4.56",
		"version":"2.0"
	},
	"extensionsUsed":[
		"KHR_materials_clearcoat"
	],
	"scene":0,
	"scenes":[
		{
			"name":"Scene",
			"nodes":[
				0
			]
		}
	],
	"nodes":[
		{
			"mesh":0,
			"name":"SM_oil_refinery_12_MI_oil_refinery_12_0",
			"rotation":[
				0.70710688829422,
				0,
				0,
				0.7071066498756409
			],
			"translation":[
				0,
				0.8331679701805115,
				2.3245806914928835e-06
			]
		}
	],
	"materials":[
		{
			"doubleSided":true,
			"emissiveFactor":[
				1,
				1,
				1
			],
			"extensions":{
				"KHR_materials_clearcoat":{
					"clearcoatRoughnessFactor":0.03999999910593033
				}
			},
			"name":"MI_oil_refinery_12"
		}
	],
	"meshes":[
		{
			"name":"Mesh.001",
			"primitives":[
				{
					"attributes":{
						"POSITION":0,
						"NORMAL":1,
						"TEXCOORD_0":2,
						"TEXCOORD_1":3,
						"TEXCOORD_2":4
					},
					"indices":5,
					"material":0
				}
			]
		}
	],
	"accessors":[
		{
			"bufferView":0,
			"componentType":5126,
			"count":27665,
			"max":[
				0.5466823577880859,
				1.36014986038208,
				1.674841284751892
			],
			"min":[
				-0.5466851592063904,
				-1.3601540327072144,
				-0.008505068719387054
			],
			"type":"VEC3"
		},
		{
			"bufferView":1,
			"componentType":5126,
			"count":27665,
			"type":"VEC3"
		},
		{
			"bufferView":2,
			"componentType":5126,
			"count":27665,
			"type":"VEC2"
		},
		{
			"bufferView":3,
			"componentType":5126,
			"count":27665,
			"type":"VEC2"
		},
		{
			"bufferView":4,
			"componentType":5126,
			"count":27665,
			"type":"VEC2"
		},
		{
			"bufferView":5,
			"componentType":5123,
			"count":62430,
			"type":"SCALAR"
		}
	],
	"bufferViews":[
		{
			"buffer":0,
			"byteLength":331980,
			"byteOffset":0,
			"target":34962
		},
		{
			"buffer":0,
			"byteLength":331980,
			"byteOffset":331980,
			"target":34962
		},
		{
			"buffer":0,
			"byteLength":221320,
			"byteOffset":663960,
			"target":34962
		},
		{
			"buffer":0,
			"byteLength":221320,
			"byteOffset":885280,
			"target":34962
		},
		{
			"buffer":0,
			"byteLength":221320,
			"byteOffset":1106600,
			"target":34962
		},
		{
			"buffer":0,
			"byteLength":124860,
			"byteOffset":1327920,
			"target":34963
		}
	],
	"buffers":[
		{
			"byteLength":1452780,
			"uri":"12.bin"
		}
	]
}
