{
	"asset":{
		"generator":"Khronos glTF Blender I/O v4.4.56",
		"version":"2.0"
	},
	"extensionsUsed":[
		"KHR_materials_clearcoat"
	],
	"scene":0,
	"scenes":[
		{
			"name":"Scene",
			"nodes":[
				0
			]
		}
	],
	"nodes":[
		{
			"mesh":0,
			"name":"SM_oil_refinery_13_MI_oil_refinery_13_0",
			"rotation":[
				0.70710688829422,
				0,
				0,
				0.7071066498756409
			],
			"translation":[
				6.139278411865234e-06,
				0.9339316487312317,
				2.44379020841734e-06
			]
		}
	],
	"materials":[
		{
			"doubleSided":true,
			"extensions":{
				"KHR_materials_clearcoat":{
					"clearcoatRoughnessFactor":0.03999999910593033
				}
			},
			"name":"MI_oil_refinery_13"
		}
	],
	"meshes":[
		{
			"name":"Mesh",
			"primitives":[
				{
					"attributes":{
						"POSITION":0,
						"NORMAL":1,
						"TEXCOORD_0":2,
						"TEXCOORD_1":3,
						"TEXCOORD_2":4
					},
					"indices":5,
					"material":0
				}
			]
		}
	],
	"accessors":[
		{
			"bufferView":0,
			"componentType":5126,
			"count":26912,
			"max":[
				1.3169652223587036,
				1.602142572402954,
				1.9026894569396973
			],
			"min":[
				-1.3169775009155273,
				-1.602146863937378,
				-0.03482586517930031
			],
			"type":"VEC3"
		},
		{
			"bufferView":1,
			"componentType":5126,
			"count":26912,
			"type":"VEC3"
		},
		{
			"bufferView":2,
			"componentType":5126,
			"count":26912,
			"type":"VEC2"
		},
		{
			"bufferView":3,
			"componentType":5126,
			"count":26912,
			"type":"VEC2"
		},
		{
			"bufferView":4,
			"componentType":5126,
			"count":26912,
			"type":"VEC2"
		},
		{
			"bufferView":5,
			"componentType":5123,
			"count":55968,
			"type":"SCALAR"
		}
	],
	"bufferViews":[
		{
			"buffer":0,
			"byteLength":322944,
			"byteOffset":0,
			"target":34962
		},
		{
			"buffer":0,
			"byteLength":322944,
			"byteOffset":322944,
			"target":34962
		},
		{
			"buffer":0,
			"byteLength":215296,
			"byteOffset":645888,
			"target":34962
		},
		{
			"buffer":0,
			"byteLength":215296,
			"byteOffset":861184,
			"target":34962
		},
		{
			"buffer":0,
			"byteLength":215296,
			"byteOffset":1076480,
			"target":34962
		},
		{
			"buffer":0,
			"byteLength":111936,
			"byteOffset":1291776,
			"target":34963
		}
	],
	"buffers":[
		{
			"byteLength":1403712,
			"uri":"13.bin"
		}
	]
}
