{
	"asset":{
		"generator":"Khronos glTF Blender I/O v4.4.56",
		"version":"2.0"
	},
	"extensionsUsed":[
		"KHR_materials_clearcoat"
	],
	"scene":0,
	"scenes":[
		{
			"name":"Scene",
			"nodes":[
				0
			]
		}
	],
	"nodes":[
		{
			"mesh":0,
			"name":"SM_oil_refinery_02_MI_oil_refinery_02_0",
			"rotation":[
				0.70710688829422,
				0,
				0,
				0.7071066498756409
			],
			"translation":[
				0.008360147476196289,
				0.7619388699531555,
				0.005550950299948454
			]
		}
	],
	"materials":[
		{
			"doubleSided":true,
			"emissiveFactor":[
				1,
				1,
				1
			],
			"extensions":{
				"KHR_materials_clearcoat":{
					"clearcoatRoughnessFactor":0.03999999910593033
				}
			},
			"name":"MI_oil_refinery_02"
		}
	],
	"meshes":[
		{
			"name":"Mesh.011",
			"primitives":[
				{
					"attributes":{
						"POSITION":0,
						"NORMAL":1,
						"TEXCOORD_0":2,
						"TEXCOORD_1":3,
						"TEXCOORD_2":4
					},
					"indices":5,
					"material":0
				}
			]
		}
	],
	"accessors":[
		{
			"bufferView":0,
			"componentType":5126,
			"count":19938,
			"max":[
				0.4469084143638611,
				0.2536551356315613,
				1.524211049079895
			],
			"min":[
				-0.46362870931625366,
				-0.26475659012794495,
				-0.00033315003383904696
			],
			"type":"VEC3"
		},
		{
			"bufferView":1,
			"componentType":5126,
			"count":19938,
			"type":"VEC3"
		},
		{
			"bufferView":2,
			"componentType":5126,
			"count":19938,
			"type":"VEC2"
		},
		{
			"bufferView":3,
			"componentType":5126,
			"count":19938,
			"type":"VEC2"
		},
		{
			"bufferView":4,
			"componentType":5126,
			"count":19938,
			"type":"VEC2"
		},
		{
			"bufferView":5,
			"componentType":5123,
			"count":51813,
			"type":"SCALAR"
		}
	],
	"bufferViews":[
		{
			"buffer":0,
			"byteLength":239256,
			"byteOffset":0,
			"target":34962
		},
		{
			"buffer":0,
			"byteLength":239256,
			"byteOffset":239256,
			"target":34962
		},
		{
			"buffer":0,
			"byteLength":159504,
			"byteOffset":478512,
			"target":34962
		},
		{
			"buffer":0,
			"byteLength":159504,
			"byteOffset":638016,
			"target":34962
		},
		{
			"buffer":0,
			"byteLength":159504,
			"byteOffset":797520,
			"target":34962
		},
		{
			"buffer":0,
			"byteLength":103626,
			"byteOffset":957024,
			"target":34963
		}
	],
	"buffers":[
		{
			"byteLength":1060652,
			"uri":"2.bin"
		}
	]
}
