{
	"asset":{
		"generator":"Khronos glTF Blender I/O v4.4.56",
		"version":"2.0"
	},
	"extensionsUsed":[
		"KHR_materials_clearcoat"
	],
	"scene":0,
	"scenes":[
		{
			"name":"Scene",
			"nodes":[
				0
			]
		}
	],
	"nodes":[
		{
			"mesh":0,
			"name":"SM_oil_refinery_03_MI_oil_refinery_03_0",
			"rotation":[
				0.70710688829422,
				0,
				0,
				0.7071066498756409
			],
			"translation":[
				-0.022088825702667236,
				0.7079401016235352,
				0.16886575520038605
			]
		}
	],
	"materials":[
		{
			"doubleSided":true,
			"emissiveFactor":[
				1,
				1,
				1
			],
			"extensions":{
				"KHR_materials_clearcoat":{
					"clearcoatRoughnessFactor":0.03999999910593033
				}
			},
			"name":"MI_oil_refinery_03"
		}
	],
	"meshes":[
		{
			"name":"Mesh.010",
			"primitives":[
				{
					"attributes":{
						"POSITION":0,
						"NORMAL":1,
						"TEXCOORD_0":2,
						"TEXCOORD_1":3,
						"TEXCOORD_2":4
					},
					"indices":5,
					"material":0
				}
			]
		}
	],
	"accessors":[
		{
			"bufferView":0,
			"componentType":5126,
			"count":44294,
			"max":[
				1.5571256875991821,
				0.35974833369255066,
				1.415880799293518
			],
			"min":[
				-1.5129480361938477,
				-0.6974794864654541,
				-2.1129883975845587e-07
			],
			"type":"VEC3"
		},
		{
			"bufferView":1,
			"componentType":5126,
			"count":44294,
			"type":"VEC3"
		},
		{
			"bufferView":2,
			"componentType":5126,
			"count":44294,
			"type":"VEC2"
		},
		{
			"bufferView":3,
			"componentType":5126,
			"count":44294,
			"type":"VEC2"
		},
		{
			"bufferView":4,
			"componentType":5126,
			"count":44294,
			"type":"VEC2"
		},
		{
			"bufferView":5,
			"componentType":5123,
			"count":49236,
			"type":"SCALAR"
		}
	],
	"bufferViews":[
		{
			"buffer":0,
			"byteLength":531528,
			"byteOffset":0,
			"target":34962
		},
		{
			"buffer":0,
			"byteLength":531528,
			"byteOffset":531528,
			"target":34962
		},
		{
			"buffer":0,
			"byteLength":354352,
			"byteOffset":1063056,
			"target":34962
		},
		{
			"buffer":0,
			"byteLength":354352,
			"byteOffset":1417408,
			"target":34962
		},
		{
			"buffer":0,
			"byteLength":354352,
			"byteOffset":1771760,
			"target":34962
		},
		{
			"buffer":0,
			"byteLength":98472,
			"byteOffset":2126112,
			"target":34963
		}
	],
	"buffers":[
		{
			"byteLength":2224584,
			"uri":"3.bin"
		}
	]
}
