{
	"asset":{
		"generator":"Khronos glTF Blender I/O v4.4.56",
		"version":"2.0"
	},
	"extensionsUsed":[
		"KHR_materials_clearcoat"
	],
	"scene":0,
	"scenes":[
		{
			"name":"Scene",
			"nodes":[
				0
			]
		}
	],
	"nodes":[
		{
			"mesh":0,
			"name":"SM_oil_refinery_04_MI_oil_refinery_04_0",
			"rotation":[
				0.70710688829422,
				0,
				0,
				0.7071066498756409
			],
			"scale":[
				0.9925730228424072,
				0.9925729632377625,
				0.9925729632377625
			],
			"translation":[
				3.0994415283203125e-06,
				1.0205979347229004,
				0
			]
		}
	],
	"materials":[
		{
			"doubleSided":true,
			"emissiveFactor":[
				1,
				1,
				1
			],
			"extensions":{
				"KHR_materials_clearcoat":{
					"clearcoatRoughnessFactor":0.03999999910593033
				}
			},
			"name":"MI_oil_refinery_04"
		}
	],
	"meshes":[
		{
			"name":"Mesh.009",
			"primitives":[
				{
					"attributes":{
						"POSITION":0,
						"NORMAL":1,
						"TEXCOORD_0":2,
						"TEXCOORD_1":3,
						"TEXCOORD_2":4
					},
					"indices":5,
					"material":0
				}
			]
		}
	],
	"accessors":[
		{
			"bufferView":0,
			"componentType":5126,
			"count":49915,
			"max":[
				2.0149619579315186,
				0.8330307602882385,
				2.0514750480651855
			],
			"min":[
				-2.014968156814575,
				-0.833026647567749,
				-0.010278676636517048
			],
			"type":"VEC3"
		},
		{
			"bufferView":1,
			"componentType":5126,
			"count":49915,
			"type":"VEC3"
		},
		{
			"bufferView":2,
			"componentType":5126,
			"count":49915,
			"type":"VEC2"
		},
		{
			"bufferView":3,
			"componentType":5126,
			"count":49915,
			"type":"VEC2"
		},
		{
			"bufferView":4,
			"componentType":5126,
			"count":49915,
			"type":"VEC2"
		},
		{
			"bufferView":5,
			"componentType":5123,
			"count":89520,
			"type":"SCALAR"
		}
	],
	"bufferViews":[
		{
			"buffer":0,
			"byteLength":598980,
			"byteOffset":0,
			"target":34962
		},
		{
			"buffer":0,
			"byteLength":598980,
			"byteOffset":598980,
			"target":34962
		},
		{
			"buffer":0,
			"byteLength":399320,
			"byteOffset":1197960,
			"target":34962
		},
		{
			"buffer":0,
			"byteLength":399320,
			"byteOffset":1597280,
			"target":34962
		},
		{
			"buffer":0,
			"byteLength":399320,
			"byteOffset":1996600,
			"target":34962
		},
		{
			"buffer":0,
			"byteLength":179040,
			"byteOffset":2395920,
			"target":34963
		}
	],
	"buffers":[
		{
			"byteLength":2574960,
			"uri":"4.bin"
		}
	]
}
