{
	"asset":{
		"generator":"Khronos glTF Blender I/O v4.4.56",
		"version":"2.0"
	},
	"extensionsUsed":[
		"KHR_materials_clearcoat"
	],
	"scene":0,
	"scenes":[
		{
			"name":"Scene",
			"nodes":[
				0
			]
		}
	],
	"nodes":[
		{
			"mesh":0,
			"name":"SM_oil_refinery_05_MI_oil_refinery_05_0",
			"rotation":[
				0.70710688829422,
				0,
				0,
				0.7071066498756409
			],
			"translation":[
				0,
				0.32257452607154846,
				0
			]
		}
	],
	"materials":[
		{
			"doubleSided":true,
			"emissiveFactor":[
				1,
				1,
				1
			],
			"extensions":{
				"KHR_materials_clearcoat":{
					"clearcoatRoughnessFactor":0.03999999910593033
				}
			},
			"name":"MI_oil_refinery_05"
		}
	],
	"meshes":[
		{
			"name":"Mesh.008",
			"primitives":[
				{
					"attributes":{
						"POSITION":0,
						"NORMAL":1,
						"TEXCOORD_0":2,
						"TEXCOORD_1":3,
						"TEXCOORD_2":4
					},
					"indices":5,
					"material":0
				}
			]
		}
	],
	"accessors":[
		{
			"bufferView":0,
			"componentType":5126,
			"count":27686,
			"max":[
				0.5090721845626831,
				0.8065478801727295,
				0.8769752979278564
			],
			"min":[
				-0.5090692043304443,
				-0.8065499663352966,
				-0.23182614147663116
			],
			"type":"VEC3"
		},
		{
			"bufferView":1,
			"componentType":5126,
			"count":27686,
			"type":"VEC3"
		},
		{
			"bufferView":2,
			"componentType":5126,
			"count":27686,
			"type":"VEC2"
		},
		{
			"bufferView":3,
			"componentType":5126,
			"count":27686,
			"type":"VEC2"
		},
		{
			"bufferView":4,
			"componentType":5126,
			"count":27686,
			"type":"VEC2"
		},
		{
			"bufferView":5,
			"componentType":5123,
			"count":61104,
			"type":"SCALAR"
		}
	],
	"bufferViews":[
		{
			"buffer":0,
			"byteLength":332232,
			"byteOffset":0,
			"target":34962
		},
		{
			"buffer":0,
			"byteLength":332232,
			"byteOffset":332232,
			"target":34962
		},
		{
			"buffer":0,
			"byteLength":221488,
			"byteOffset":664464,
			"target":34962
		},
		{
			"buffer":0,
			"byteLength":221488,
			"byteOffset":885952,
			"target":34962
		},
		{
			"buffer":0,
			"byteLength":221488,
			"byteOffset":1107440,
			"target":34962
		},
		{
			"buffer":0,
			"byteLength":122208,
			"byteOffset":1328928,
			"target":34963
		}
	],
	"buffers":[
		{
			"byteLength":1451136,
			"uri":"5.bin"
		}
	]
}
