{
	"asset":{
		"generator":"Khronos glTF Blender I/O v4.4.56",
		"version":"2.0"
	},
	"extensionsUsed":[
		"KHR_materials_clearcoat"
	],
	"scene":0,
	"scenes":[
		{
			"name":"Scene",
			"nodes":[
				0
			]
		}
	],
	"nodes":[
		{
			"mesh":0,
			"name":"SM_oil_refinery_06_MI_oil_refinery_06_0",
			"rotation":[
				0.70710688829422,
				0,
				0,
				0.7071066498756409
			],
			"translation":[
				-2.562999725341797e-06,
				0.7104231715202332,
				0
			]
		}
	],
	"materials":[
		{
			"doubleSided":true,
			"emissiveFactor":[
				1,
				1,
				1
			],
			"extensions":{
				"KHR_materials_clearcoat":{
					"clearcoatRoughnessFactor":0.03999999910593033
				}
			},
			"name":"MI_oil_refinery_06"
		}
	],
	"meshes":[
		{
			"name":"Mesh.007",
			"primitives":[
				{
					"attributes":{
						"POSITION":0,
						"NORMAL":1,
						"TEXCOORD_0":2,
						"TEXCOORD_1":3,
						"TEXCOORD_2":4
					},
					"indices":5,
					"material":0
				}
			]
		}
	],
	"accessors":[
		{
			"bufferView":0,
			"componentType":5126,
			"count":60667,
			"max":[
				1.358994722366333,
				1.3339027166366577,
				1.4268341064453125
			],
			"min":[
				-1.3589895963668823,
				-1.33390474319458,
				-0.005987463053315878
			],
			"type":"VEC3"
		},
		{
			"bufferView":1,
			"componentType":5126,
			"count":60667,
			"type":"VEC3"
		},
		{
			"bufferView":2,
			"componentType":5126,
			"count":60667,
			"type":"VEC2"
		},
		{
			"bufferView":3,
			"componentType":5126,
			"count":60667,
			"type":"VEC2"
		},
		{
			"bufferView":4,
			"componentType":5126,
			"count":60667,
			"type":"VEC2"
		},
		{
			"bufferView":5,
			"componentType":5123,
			"count":125622,
			"type":"SCALAR"
		}
	],
	"bufferViews":[
		{
			"buffer":0,
			"byteLength":728004,
			"byteOffset":0,
			"target":34962
		},
		{
			"buffer":0,
			"byteLength":728004,
			"byteOffset":728004,
			"target":34962
		},
		{
			"buffer":0,
			"byteLength":485336,
			"byteOffset":1456008,
			"target":34962
		},
		{
			"buffer":0,
			"byteLength":485336,
			"byteOffset":1941344,
			"target":34962
		},
		{
			"buffer":0,
			"byteLength":485336,
			"byteOffset":2426680,
			"target":34962
		},
		{
			"buffer":0,
			"byteLength":251244,
			"byteOffset":2912016,
			"target":34963
		}
	],
	"buffers":[
		{
			"byteLength":3163260,
			"uri":"6.bin"
		}
	]
}
