{
	"asset":{
		"generator":"Khronos glTF Blender I/O v4.4.56",
		"version":"2.0"
	},
	"extensionsUsed":[
		"KHR_materials_clearcoat"
	],
	"scene":0,
	"scenes":[
		{
			"name":"Scene",
			"nodes":[
				0
			]
		}
	],
	"nodes":[
		{
			"mesh":0,
			"name":"SM_oil_refinery_07_MI_oil_refinery_07_0",
			"rotation":[
				0.70710688829422,
				0,
				0,
				0.7071066498756409
			],
			"translation":[
				-0.03354653716087341,
				0.3831210136413574,
				-0.14652295410633087
			]
		}
	],
	"materials":[
		{
			"doubleSided":true,
			"emissiveFactor":[
				1,
				1,
				1
			],
			"extensions":{
				"KHR_materials_clearcoat":{
					"clearcoatRoughnessFactor":0.03999999910593033
				}
			},
			"name":"MI_oil_refinery_07"
		}
	],
	"meshes":[
		{
			"name":"Mesh.006",
			"primitives":[
				{
					"attributes":{
						"POSITION":0,
						"NORMAL":1,
						"TEXCOORD_0":2,
						"TEXCOORD_1":3,
						"TEXCOORD_2":4
					},
					"indices":5,
					"material":0
				}
			]
		}
	],
	"accessors":[
		{
			"bufferView":0,
			"componentType":5126,
			"count":24731,
			"max":[
				0.6384006142616272,
				0.947249174118042,
				0.7662423253059387
			],
			"min":[
				-0.5713075399398804,
				-0.6542029976844788,
				-2.863128258923098e-07
			],
			"type":"VEC3"
		},
		{
			"bufferView":1,
			"componentType":5126,
			"count":24731,
			"type":"VEC3"
		},
		{
			"bufferView":2,
			"componentType":5126,
			"count":24731,
			"type":"VEC2"
		},
		{
			"bufferView":3,
			"componentType":5126,
			"count":24731,
			"type":"VEC2"
		},
		{
			"bufferView":4,
			"componentType":5126,
			"count":24731,
			"type":"VEC2"
		},
		{
			"bufferView":5,
			"componentType":5123,
			"count":64095,
			"type":"SCALAR"
		}
	],
	"bufferViews":[
		{
			"buffer":0,
			"byteLength":296772,
			"byteOffset":0,
			"target":34962
		},
		{
			"buffer":0,
			"byteLength":296772,
			"byteOffset":296772,
			"target":34962
		},
		{
			"buffer":0,
			"byteLength":197848,
			"byteOffset":593544,
			"target":34962
		},
		{
			"buffer":0,
			"byteLength":197848,
			"byteOffset":791392,
			"target":34962
		},
		{
			"buffer":0,
			"byteLength":197848,
			"byteOffset":989240,
			"target":34962
		},
		{
			"buffer":0,
			"byteLength":128190,
			"byteOffset":1187088,
			"target":34963
		}
	],
	"buffers":[
		{
			"byteLength":1315280,
			"uri":"7.bin"
		}
	]
}
