{
	"asset":{
		"generator":"Khronos glTF Blender I/O v4.4.56",
		"version":"2.0"
	},
	"extensionsUsed":[
		"KHR_materials_clearcoat"
	],
	"scene":0,
	"scenes":[
		{
			"name":"Scene",
			"nodes":[
				0
			]
		}
	],
	"nodes":[
		{
			"mesh":0,
			"name":"SM_oil_refinery_08_MI_oil_refinery_08_0",
			"rotation":[
				0.70710688829422,
				0,
				0,
				0.7071066498756409
			],
			"translation":[
				0,
				0.5552149415016174,
				0
			]
		}
	],
	"materials":[
		{
			"doubleSided":true,
			"emissiveFactor":[
				1,
				1,
				1
			],
			"extensions":{
				"KHR_materials_clearcoat":{
					"clearcoatRoughnessFactor":0.03999999910593033
				}
			},
			"name":"MI_oil_refinery_08"
		}
	],
	"meshes":[
		{
			"name":"Mesh.005",
			"primitives":[
				{
					"attributes":{
						"POSITION":0,
						"NORMAL":1,
						"TEXCOORD_0":2,
						"TEXCOORD_1":3,
						"TEXCOORD_2":4
					},
					"indices":5,
					"material":0
				}
			]
		}
	],
	"accessors":[
		{
			"bufferView":0,
			"componentType":5126,
			"count":23365,
			"max":[
				1.0150631666183472,
				0.6708160042762756,
				1.1142498254776
			],
			"min":[
				-1.0150601863861084,
				-0.6708161234855652,
				-0.0038197441026568413
			],
			"type":"VEC3"
		},
		{
			"bufferView":1,
			"componentType":5126,
			"count":23365,
			"type":"VEC3"
		},
		{
			"bufferView":2,
			"componentType":5126,
			"count":23365,
			"type":"VEC2"
		},
		{
			"bufferView":3,
			"componentType":5126,
			"count":23365,
			"type":"VEC2"
		},
		{
			"bufferView":4,
			"componentType":5126,
			"count":23365,
			"type":"VEC2"
		},
		{
			"bufferView":5,
			"componentType":5123,
			"count":39918,
			"type":"SCALAR"
		}
	],
	"bufferViews":[
		{
			"buffer":0,
			"byteLength":280380,
			"byteOffset":0,
			"target":34962
		},
		{
			"buffer":0,
			"byteLength":280380,
			"byteOffset":280380,
			"target":34962
		},
		{
			"buffer":0,
			"byteLength":186920,
			"byteOffset":560760,
			"target":34962
		},
		{
			"buffer":0,
			"byteLength":186920,
			"byteOffset":747680,
			"target":34962
		},
		{
			"buffer":0,
			"byteLength":186920,
			"byteOffset":934600,
			"target":34962
		},
		{
			"buffer":0,
			"byteLength":79836,
			"byteOffset":1121520,
			"target":34963
		}
	],
	"buffers":[
		{
			"byteLength":1201356,
			"uri":"8.bin"
		}
	]
}
