{
	"asset":{
		"generator":"Khronos glTF Blender I/O v4.4.56",
		"version":"2.0"
	},
	"extensionsUsed":[
		"KHR_materials_clearcoat"
	],
	"scene":0,
	"scenes":[
		{
			"name":"Scene",
			"nodes":[
				0
			]
		}
	],
	"nodes":[
		{
			"mesh":0,
			"name":"SM_oil_refinery_09_MI_oil_refinery_09_0",
			"rotation":[
				0.70710688829422,
				0,
				0,
				0.7071066498756409
			],
			"translation":[
				-0.0021246373653411865,
				0.4828091263771057,
				-0.0016038416652008891
			]
		}
	],
	"materials":[
		{
			"doubleSided":true,
			"emissiveFactor":[
				1,
				1,
				1
			],
			"extensions":{
				"KHR_materials_clearcoat":{
					"clearcoatRoughnessFactor":0.03999999910593033
				}
			},
			"name":"MI_oil_refinery_09"
		}
	],
	"meshes":[
		{
			"name":"Mesh.004",
			"primitives":[
				{
					"attributes":{
						"POSITION":0,
						"NORMAL":1,
						"TEXCOORD_0":2,
						"TEXCOORD_1":3,
						"TEXCOORD_2":4
					},
					"indices":5,
					"material":0
				}
			]
		}
	],
	"accessors":[
		{
			"bufferView":0,
			"componentType":5126,
			"count":25000,
			"max":[
				0.6505483388900757,
				0.6371226906776428,
				0.9656185507774353
			],
			"min":[
				-0.6462990641593933,
				-0.6339147090911865,
				-1.5272688358436426e-07
			],
			"type":"VEC3"
		},
		{
			"bufferView":1,
			"componentType":5126,
			"count":25000,
			"type":"VEC3"
		},
		{
			"bufferView":2,
			"componentType":5126,
			"count":25000,
			"type":"VEC2"
		},
		{
			"bufferView":3,
			"componentType":5126,
			"count":25000,
			"type":"VEC2"
		},
		{
			"bufferView":4,
			"componentType":5126,
			"count":25000,
			"type":"VEC2"
		},
		{
			"bufferView":5,
			"componentType":5123,
			"count":50148,
			"type":"SCALAR"
		}
	],
	"bufferViews":[
		{
			"buffer":0,
			"byteLength":300000,
			"byteOffset":0,
			"target":34962
		},
		{
			"buffer":0,
			"byteLength":300000,
			"byteOffset":300000,
			"target":34962
		},
		{
			"buffer":0,
			"byteLength":200000,
			"byteOffset":600000,
			"target":34962
		},
		{
			"buffer":0,
			"byteLength":200000,
			"byteOffset":800000,
			"target":34962
		},
		{
			"buffer":0,
			"byteLength":200000,
			"byteOffset":1000000,
			"target":34962
		},
		{
			"buffer":0,
			"byteLength":100296,
			"byteOffset":1200000,
			"target":34963
		}
	],
	"buffers":[
		{
			"byteLength":1300296,
			"uri":"9.bin"
		}
	]
}
